<?xml version="1.0" encoding="UTF-8"?>
<svg id="a" data-name="Calque 1" xmlns="http://www.w3.org/2000/svg" width="24" height="24" viewBox="0 0 24 24">
  <g>
    <path d="m4.159,13.645h2.762c.668,0,1.21.542,1.21,1.21v6.844H2.949v-6.844c0-.668.542-1.21,1.21-1.21Z" fill="#a7b0ff" stroke-width="0"/>
    <path d="m10.416,11.24h2.762c.668,0,1.21.542,1.21,1.21v9.249h-5.183v-9.249c0-.668.542-1.21,1.21-1.21Z" fill="#a7b0ff" stroke-width="0"/>
    <path d="m16.813,9.793h2.762c.668,0,1.21.542,1.21,1.21v10.696h-5.183v-10.696c0-.668.542-1.21,1.21-1.21Z" fill="#a7b0ff" stroke-width="0"/>
  </g>
  <g>
    <polygon points="19.804 4.982 2.628 9.429 2.628 10.977 20.179 6.433 19.804 4.982" fill="#161b24" stroke-width="0"/>
    <polygon points="19.274 8.662 17.95 7.957 18.98 6.023 17.046 4.992 17.751 3.668 21.009 5.404 19.274 8.662" fill="#161b24" stroke-width="0"/>
  </g>
</svg>