<?xml version="1.0" encoding="UTF-8"?>
<svg id="a" data-name="Calque 1" xmlns="http://www.w3.org/2000/svg" width="24" height="24" viewBox="0 0 24 24">
  <g>
    <path d="m9.161,15.209c2.767,0,5.019-2.251,5.019-5.019s-2.251-5.02-5.019-5.02-5.019,2.251-5.019,5.02,2.251,5.019,5.019,5.019Z" fill="#a7b0ff" stroke-width="0"/>
    <path d="m18.014,21.732h0c0-.866-.309-1.713-.908-2.338-1.626-1.696-4.597-2.766-7.945-2.766-3.331,0-6.288,1.058-7.919,2.739-.62.639-.935,1.513-.935,2.403H.307c1.37,0,16.751-.038,17.707-.038Z" fill="#a7b0ff" stroke-width="0"/>
  </g>
  <g>
    <path d="m14.431,15.9c-2.954,0-5.358-2.403-5.358-5.358s2.403-5.357,5.358-5.357,5.358,2.403,5.358,5.357-2.403,5.358-5.358,5.358Zm0-8.985c-2,0-3.627,1.626-3.627,3.627s1.627,3.628,3.627,3.628,3.627-1.627,3.627-3.628-1.627-3.627-3.627-3.627Z" fill="#161b24" stroke-width="0"/>
    <path d="m14.431,17.413c-4.405,0-8.198,1.735-9.444,4.319h2.069c1.332-1.536,4.229-2.589,7.375-2.589s6.043,1.053,7.375,2.589h2.069c-1.247-2.584-5.039-4.319-9.444-4.319Z" fill="#161b24" stroke-width="0"/>
  </g>
</svg>